<svg xmlns="http://www.w3.org/2000/svg" viewBox="0 0 620 140">
  <!-- reference as logo-wordmark.svg#dark to get light text for dark backgrounds -->
  <style>#dark:target ~ text { fill: #F2F2F4; }</style>
  <g id="dark"/>
  <!-- the badge, scaled down -->
  <g transform="translate(20 10) scale(0.46875)">
    <rect width="256" height="256" rx="56" fill="#FC4C02"/>
    <path d="M62 146 v-20 a26 26 0 0 1 45 -18" fill="none" stroke="#fff" stroke-width="13" stroke-linecap="round"/>
    <rect x="44" y="146" width="68" height="56" rx="12" fill="#fff"/>
    <circle cx="78" cy="168" r="8" fill="#FC4C02"/>
    <rect x="74" y="172" width="8" height="14" rx="4" fill="#FC4C02"/>
    <path d="M118 164 C 152 184, 184 166, 172 138 C 162 114, 128 116, 136 142 C 145 170, 190 158, 198 124 C 202 108, 198 98, 203 90"
          fill="none" stroke="#fff" stroke-width="10" stroke-linecap="round"
          stroke-dasharray="0.1 17"/>
    <path d="M205 38 c-13 0 -23 10 -23 22 c0 15 23 38 23 38 s23 -23 23 -38 c0 -12 -10 -22 -23 -22 z" fill="#fff"/>
    <circle cx="205" cy="61" r="8" fill="#FC4C02"/>
  </g>
  <!-- shaken-loose wordmark -->
  <text x="170" y="88" font-family="Avenir Next, Futura, Helvetica Neue, Arial, sans-serif"
        font-weight="700" font-size="64" letter-spacing="-1" fill="#2D2D32">komoot<tspan
        fill="#FC4C02" rotate="-7 5 -4 8 -5" dx="2 4 3 4 3" dy="0 -6 5 -4 7">loose</tspan></text>
</svg>
